<svg version="1.1" width="100" height="167" viewBox="-1 -1 100 167" xmlns="http://www.w3.org/2000/svg" xmlns:xlink="http://www.w3.org/1999/xlink">
  <!-- Exported by Scratch - http://scratch.mit.edu/ -->
  <path id="ID0.306332653388381" fill="none" stroke="#000000" stroke-width="2" d="M 243.750 183.250 C 251.406 183.250 258.344 186.149 263.367 190.833 C 268.391 195.518 271.500 201.986 271.500 209.125 C 271.500 216.264 268.391 222.732 263.367 227.417 C 258.344 232.101 251.406 235 243.750 235 C 236.094 235 229.156 232.101 224.133 227.417 C 219.109 222.732 216 216.264 216 209.125 C 216 201.986 219.109 195.518 224.133 190.833 C 229.156 186.149 236.094 183.250 243.750 183.250 Z " transform="matrix(1, 0, 0, 1, -198.5, -181.75)"/>
  <path id="ID0.44368696631863713" fill="none" stroke="#000000" stroke-width="2" stroke-linecap="round" d="M 255 233 L 233 232 L 215.500 244 L 210 260 L 211 283.500 L 222.250 283 L 221.250 262.500 L 226.750 254.500 L 223 298.500 L 272.750 298.250 L 267.750 251.750 L 278 260.500 L 279.750 280 L 291.750 281 L 289.750 255 L 272.750 238.250 L 255 233 Z " transform="matrix(1, 0, 0, 1, -198, -181)"/>
  <path id="ID0.5440499894320965" fill="none" stroke="#000000" stroke-width="2" stroke-linecap="round" d="M 227.250 344.750 L 223.250 299.750 L 272.500 299.250 L 272.750 343.500 L 254.750 343.500 L 254 320.750 L 242.250 320.500 L 240.250 345.500 L 227.250 344.750 Z " transform="matrix(1, 0, 0, 1, -198, -181)"/>
  <path id="ID0.6971433721482754" fill="none" stroke="#000000" stroke-width="2" stroke-linecap="round" d="M 254.750 351.500 L 254.250 359 L 293.750 358.500 L 284.250 351.250 L 254.750 351.500 Z " transform="matrix(1, 0, 0, 1, -197.75, -194.75)"/>
  <path id="ID0.6971433721482754" fill="none" stroke="#000000" stroke-width="2" stroke-linecap="round" d="M 254.750 351.500 L 254.250 359 L 293.750 358.500 L 284.250 351.250 L 254.750 351.500 Z " transform="matrix(-1, 0, 0, 1, 297.35, -193.8)"/>
  <path id="ID0.9952249224297702" fill="none" stroke="#000000" stroke-width="2" d="M 215.125 295.250 C 216.056 295.250 216.900 295.628 217.511 296.239 C 218.122 296.850 218.500 297.694 218.500 298.625 C 218.500 299.556 218.122 300.400 217.511 301.011 C 216.900 301.622 216.056 302 215.125 302 C 214.194 302 213.350 301.622 212.739 301.011 C 212.128 300.400 211.750 299.556 211.750 298.625 C 211.750 297.694 212.128 296.850 212.739 296.239 C 213.350 295.628 214.194 295.250 215.125 295.250 Z " transform="matrix(1, 0, 0, 1, -196.5, -191.75)"/>
  <path id="ID0.20735126081854105" fill="none" stroke="#000000" stroke-width="2" d="M 286.125 295.750 C 287.125 295.750 288.031 296.086 288.688 296.629 C 289.344 297.172 289.750 297.922 289.750 298.750 C 289.750 299.578 289.344 300.328 288.688 300.871 C 288.031 301.414 287.125 301.750 286.125 301.750 C 285.125 301.750 284.219 301.414 283.562 300.871 C 282.906 300.328 282.500 299.578 282.500 298.750 C 282.500 297.922 282.906 297.172 283.562 296.629 C 284.219 296.086 285.125 295.750 286.125 295.750 Z " transform="matrix(1, 0, 0, 1, -199, -194.75)"/>
</svg>