<svg version="1.1" width="37" height="40" viewBox="-1 -1 37 40" xmlns="http://www.w3.org/2000/svg" xmlns:xlink="http://www.w3.org/1999/xlink">
  <!-- Exported by Scratch - http://scratch.mit.edu/ -->
  <path id="ID0.42011542385444045" fill="none" stroke="#000000" stroke-width="5" stroke-linecap="round" d="M 231.400 194.850 L 231.700 195.150 " transform="matrix(1, 0, 0, 1, -224, -185)"/>
  <path id="ID0.7571460870094597" fill="none" stroke="#000000" stroke-width="5" stroke-linecap="round" d="M 253.300 194.600 L 253.600 194.900 " transform="matrix(1, 0, 0, 1, -224, -185)"/>
  <path id="ID0.20107780117541552" fill="none" stroke="#000000" stroke-width="5" stroke-linecap="round" d="M 241.650 208.500 L 241.950 208.800 " transform="matrix(1, 0, 0, 1, -224.15, -189.75)"/>
  <path id="ID0.35397640941664577" fill="none" stroke="#000000" stroke-width="5" stroke-linecap="round" d="M 228.500 210.850 C 228.500 210.850 231.236 214.169 233 215.100 C 249.826 218.247 251.141 216.981 255.500 216 C 257.058 215.339 258.007 213.677 258.800 212.200 C 259.276 211.314 259.150 209.200 259.150 209.200 " transform="matrix(1, 0, 0, -1, -225.2, 246.4)"/>
  <path id="ID0.08309898478910327" fill="none" stroke="#000000" stroke-width="2" stroke-linecap="round" d="M 227.650 187.200 L 235 192.200 " transform="matrix(1, 0, 0, 1, -224, -185)"/>
  <path id="ID0.676963638048619" fill="none" stroke="#000000" stroke-width="2" stroke-linecap="round" d="M 254.400 186.850 L 249 192.500 " transform="matrix(1, 0, 0, 1, -224, -185)"/>
</svg>