<svg version="1.1" width="37" height="33" viewBox="-1 -1 37 33" xmlns="http://www.w3.org/2000/svg" xmlns:xlink="http://www.w3.org/1999/xlink">
  <!-- Exported by Scratch - http://scratch.mit.edu/ -->
  <path id="ID0.42011542385444045" fill="none" stroke="#000000" stroke-width="5" stroke-linecap="round" d="M 231.400 194.850 L 231.700 195.150 " transform="matrix(1, 0, 0, 1, -226, -192)"/>
  <path id="ID0.7571460870094597" fill="none" stroke="#000000" stroke-width="5" stroke-linecap="round" d="M 253.300 194.600 L 253.600 194.900 " transform="matrix(1, 0, 0, 1, -226, -192)"/>
  <path id="ID0.20107780117541552" fill="none" stroke="#000000" stroke-width="5" stroke-linecap="round" d="M 241.650 208.500 L 241.950 208.800 " transform="matrix(1, 0, 0, 1, -226, -192)"/>
  <path id="ID0.35397640941664577" fill="none" stroke="#000000" stroke-width="5" stroke-linecap="round" d="M 228.500 210.850 C 228.500 210.850 231.529 213.656 233 215.100 C 234.244 216.321 235.212 217.866 236.650 218.850 C 238.066 219.819 239.708 220.564 241.400 220.850 C 243.046 221.128 244.764 220.831 246.400 220.500 C 248.088 220.159 249.757 219.613 251.300 218.850 C 252.815 218.101 254.235 217.121 255.500 216 C 256.754 214.888 258.007 213.677 258.800 212.200 C 259.276 211.314 259.150 209.200 259.150 209.200 " transform="matrix(1, 0, 0, 1, -226, -192)"/>
</svg>