<svg version="1.1" width="36" height="32" viewBox="-1 -1 36 32" xmlns="http://www.w3.org/2000/svg" xmlns:xlink="http://www.w3.org/1999/xlink">
  <!-- Exported by Scratch - http://scratch.mit.edu/ -->
  <path id="ID0.20107780117541552" fill="none" stroke="#000000" stroke-width="5" stroke-linecap="round" d="M 241.650 208.500 L 241.950 208.800 " transform="matrix(1, 0, 0, 1, -226, -192)"/>
  <path id="ID0.6138265989720821" fill="none" stroke="#000000" stroke-width="5" stroke-linecap="round" d="M 228.500 219.700 L 257 219.700 " transform="matrix(1, 0, 0, 1, -226, -192)"/>
  <path id="ID0.8171600508503616" fill="none" stroke="#000000" stroke-width="2" d="M 230.400 193 C 231.476 193 232.451 193.459 233.157 194.202 C 233.863 194.944 234.300 195.969 234.300 197.100 C 234.300 198.231 233.863 199.256 233.157 199.998 C 232.451 200.741 231.476 201.200 230.400 201.200 C 229.324 201.200 228.349 200.741 227.643 199.998 C 226.937 199.256 226.500 198.231 226.500 197.100 C 226.500 195.969 226.937 194.944 227.643 194.202 C 228.349 193.459 229.324 193 230.400 193 Z " transform="matrix(1, 0, 0, 1, -224.6, -191.5)"/>
  <path id="ID0.8171600508503616" fill="none" stroke="#000000" stroke-width="2" d="M 230.400 193 C 231.476 193 232.451 193.459 233.157 194.202 C 233.863 194.944 234.300 195.969 234.300 197.100 C 234.300 198.231 233.863 199.256 233.157 199.998 C 232.451 200.741 231.476 201.200 230.400 201.200 C 229.324 201.200 228.349 200.741 227.643 199.998 C 226.937 199.256 226.500 198.231 226.500 197.100 C 226.500 195.969 226.937 194.944 227.643 194.202 C 228.349 193.459 229.324 193 230.400 193 Z " transform="matrix(1, 0, 0, 1, -201.7, -191.85)"/>
  <path id="ID0.8387924628332257" fill="none" stroke="#000000" stroke-width="2" stroke-linecap="round" d="M 250 199.500 L 259.300 199.500 " transform="matrix(1, 0, 0, 1, -226, -192)"/>
  <path id="ID0.6277703298255801" fill="none" stroke="#000000" stroke-width="2" stroke-linecap="round" d="M 227.300 199.850 L 236.500 200 " transform="matrix(1, 0, 0, 1, -226, -192)"/>
</svg>