<svg version="1.1" width="40" height="31" viewBox="-1 -1 40 31" xmlns="http://www.w3.org/2000/svg" xmlns:xlink="http://www.w3.org/1999/xlink">
  <!-- Exported by Scratch - http://scratch.mit.edu/ -->
  <path id="ID0.42011542385444045" fill="none" stroke="#000000" stroke-width="5" stroke-linecap="round" d="M 231.400 194.850 L 231.700 195.150 " transform="matrix(1, 0, 0, 1, -225, -192)"/>
  <path id="ID0.7571460870094597" fill="none" stroke="#000000" stroke-width="5" stroke-linecap="round" d="M 253.300 194.600 L 253.600 194.900 " transform="matrix(1, 0, 0, 1, -225, -192)"/>
  <path id="ID0.08038857486099005" fill="#FFFFFF" stroke="#000000" stroke-width="2" stroke-linecap="round" d="M 228.500 210.700 L 259 209.100 C 261.689 209.033 259.300 211.300 258.800 212.200 C 258 213.600 256.800 214.800 255.500 216 C 254.200 217.100 252.800 218.100 251.300 218.800 C 249.800 219.600 248.100 220.100 246.400 220.500 C 244.800 220.800 243 221.100 241.400 220.800 C 239.700 220.500 238.100 219.800 236.700 218.800 C 235.200 217.800 234.212 216.304 233 215.100 C 231.504 213.613 227.261 211.086 228.500 210.800 Z " transform="matrix(1.1242603063583374, 0, 0, 1.1242603063583374, -255.05, -220.15)"/>
  <path id="ID0.9766912972554564" fill="none" stroke="#000000" stroke-width="2" stroke-linecap="round" d="M 235.500 208.200 L 236.500 217.350 " transform="matrix(1, 0, 0, 1, -225, -192)"/>
  <path id="ID0.4943963051773608" fill="none" stroke="#000000" stroke-width="2" stroke-linecap="round" d="M 242.300 219.350 L 242.400 207.850 " transform="matrix(1, 0, 0, 1, -225, -192)"/>
  <path id="ID0.9797825645655394" fill="none" stroke="#000000" stroke-width="2" stroke-linecap="round" d="M 249.650 218.500 L 248.400 207 " transform="matrix(1, 0, 0, 1, -225, -192)"/>
  <path id="ID0.753366157412529" fill="none" stroke="#000000" stroke-width="2" stroke-linecap="round" d="M 255.800 214.850 L 254.900 207.600 " transform="matrix(1, 0, 0, 1, -225, -192)"/>
</svg>