<svg version="1.1" width="108" height="121" viewBox="-1 -1 108 121" xmlns="http://www.w3.org/2000/svg" xmlns:xlink="http://www.w3.org/1999/xlink">
  <!-- Exported by Scratch - http://scratch.mit.edu/ -->
  <path id="ID0.4725642637349665" fill="#FFFFFF" stroke="#FFFFFF" stroke-width="5" d="M 211 117.500 L 263.500 117.500 L 263.500 195.500 L 211 195.500 L 211 117.500 Z " transform="matrix(1, 0, 0, 1, -183.5, -110)"/>
  <path id="ID0.10474840831011534" fill="#FFFFFF" stroke="#000000" stroke-width="5" stroke-linecap="round" d="M 213 182.500 L 264 183.500 C 269.704 183.917 266.450 183 266.500 182.500 C 266.600 180.800 266.550 179.150 266.500 177.500 C 266.400 175.800 266 174.150 266 172.500 C 266 170.800 265.850 169.050 266.500 167.500 C 267.100 165.900 268.100 164.450 269.500 163.500 C 272.400 161.400 275.650 159.750 279 158.500 C 280.550 157.900 282.300 157.900 284 158 C 285.650 158.050 287.700 157.850 289 159 C 290.350 160.150 290.550 162.250 291 164 C 291.400 165.600 291.500 167.300 291.500 169 C 291.500 170.650 291.200 172.300 291 174 C 290.700 175.800 290 179.500 289.500 178.500 L 289.500 230 L 191 230 L 190.500 179 C 190 178.500 190.400 174.800 190.500 173 C 190.550 171.300 190.050 169.600 190.500 168 C 190.900 166.300 191.700 164.600 193 163.500 C 194.350 162.300 196.200 161.850 198 161.500 C 199.600 161.150 201.300 161.300 203 161.500 C 204.650 161.650 206.500 161.600 208 162.500 C 209.500 163.350 210.950 164.800 211.500 166.500 C 213 171.300 213.360 176.456 214 181.500 C 214.151 182.752 211.400 182.916 213.500 183 Z " transform="matrix(1, 0, 0, 1, -187, -113)"/>
  <path id="ID0.2923386883921921" fill="none" stroke="#000000" stroke-width="5" stroke-linecap="round" d="M 266 182.500 L 268 229 " transform="matrix(1, 0, 0, 1, -187, -113)"/>
  <path id="ID0.8852390223182738" fill="none" stroke="#000000" stroke-width="5" stroke-linecap="round" d="M 214 181.500 L 213 227.500 " transform="matrix(1, 0, 0, 1, -187, -113)"/>
  <path id="ID0.8117926097474992" fill="none" stroke="#000000" stroke-width="5" stroke-linecap="round" d="M 209 161 L 208.500 116 L 271.500 116 L 269.500 162 " transform="matrix(1, 0, 0, 1, -187, -113)"/>
</svg>