<svg version="1.1" width="209" height="115" viewBox="-1 -1 209 115" xmlns="http://www.w3.org/2000/svg" xmlns:xlink="http://www.w3.org/1999/xlink">
  <!-- Exported by Scratch - http://scratch.mit.edu/ -->
  <path id="ID0.6782337571494281" fill="#FFFFFF" stroke="#000000" stroke-width="5" stroke-linecap="round" d="M 243.500 196.500 L 160.500 171.500 L 162 117 L 311.500 115.500 L 312.500 173 L 243.500 196.500 Z " transform="matrix(1, 0, 0, 1, -136, -112)"/>
  <path id="ID0.10474840831011534" fill="#FFFFFF" stroke="#000000" stroke-width="5" stroke-linecap="round" d="M 214 181.500 L 264 183.500 C 274.524 183.932 266.450 183 266.500 182.500 C 266.600 180.800 266.550 179.150 266.500 177.500 C 266.400 175.800 266 174.150 266 172.500 C 266 170.800 265.850 169.050 266.500 167.500 C 267.100 165.900 268.100 164.450 269.500 163.500 C 272.400 161.400 275.650 159.750 279 158.500 C 280.550 157.900 282.300 157.900 284 158 C 285.650 158.050 287.700 157.850 289 159 C 290.350 160.150 290.550 162.250 291 164 C 291.400 165.600 291.500 167.300 291.500 169 C 291.500 170.650 291.200 172.300 291 174 C 290.700 175.800 290 179.500 289.500 178.500 L 289.500 230 L 191 230 L 191 197 C 190.668 186.026 204.621 183.226 214 181.500 Z " transform="matrix(1, 0, 0, 1, -86, -119.5)"/>
  <path id="ID0.10474840831011534" fill="#FFFFFF" stroke="#000000" stroke-width="5" stroke-linecap="round" d="M 214 181.500 C 237.878 187.559 267.363 172.558 288.400 186 L 289.500 230 L 191 230 L 190.500 179 C 190 178.500 190.400 174.800 190.500 173 C 190.550 171.300 190.050 169.600 190.500 168 C 190.900 166.300 191.700 164.600 193 163.500 C 194.350 162.300 196.200 161.850 198 161.500 C 199.600 161.150 201.300 161.300 203 161.500 C 204.650 161.650 206.500 161.600 208 162.500 C 209.500 163.350 210.954 164.803 211.500 166.500 C 213.006 171.307 208.117 179.923 214 181.500 Z " transform="matrix(1, 0, 0, 1, -187.4, -118.5)"/>
  <path id="ID0.025330281350761652" fill="none" stroke="#000000" stroke-width="5" stroke-linecap="round" d="M 239 185 L 236.500 118.500 " transform="matrix(1, 0, 0, 1, -136, -112)"/>
</svg>